<svg xmlns="http://www.w3.org/2000/svg" xmlns:xlink="http://www.w3.org/1999/xlink" width="500" zoomAndPan="magnify" viewBox="0 0 375 374.999991" height="500" preserveAspectRatio="xMidYMid meet" version="1.0"><defs><g/></defs><g fill="#45bf92" fill-opacity="1"><g transform="translate(145.171489, 184.576862)"><g><path d="M 10.25 0 L 7.21875 -4.96875 L 4.015625 -4.96875 L 4.015625 0 L 1.265625 0 L 1.265625 -13.078125 L 7.796875 -13.078125 C 9.359375 -13.078125 10.5625 -12.738281 11.40625 -12.0625 C 12.257812 -11.394531 12.6875 -10.429688 12.6875 -9.171875 C 12.6875 -8.253906 12.425781 -7.460938 11.90625 -6.796875 C 11.382812 -6.140625 10.679688 -5.707031 9.796875 -5.5 L 13.328125 0 Z M 9.921875 -9.0625 C 9.921875 -10.320312 9.117188 -10.953125 7.515625 -10.953125 L 4.015625 -10.953125 L 4.015625 -7.09375 L 7.59375 -7.09375 C 8.351562 -7.09375 8.929688 -7.265625 9.328125 -7.609375 C 9.722656 -7.953125 9.921875 -8.4375 9.921875 -9.0625 Z M 9.921875 -9.0625 "/></g></g></g><g fill="#45bf92" fill-opacity="1"><g transform="translate(158.889864, 184.576862)"><g><path d="M 1.265625 0 L 1.265625 -13.078125 L 11.546875 -13.078125 L 11.546875 -10.953125 L 4.015625 -10.953125 L 4.015625 -7.671875 L 10.984375 -7.671875 L 10.984375 -5.5625 L 4.015625 -5.5625 L 4.015625 -2.109375 L 11.9375 -2.109375 L 11.9375 0 Z M 1.265625 0 "/></g></g></g><g fill="#45bf92" fill-opacity="1"><g transform="translate(171.560109, 184.576862)"><g><path d="M 9.234375 0 L 3.53125 -10.0625 C 3.644531 -9.082031 3.703125 -8.296875 3.703125 -7.703125 L 3.703125 0 L 1.265625 0 L 1.265625 -13.078125 L 4.390625 -13.078125 L 10.171875 -2.921875 C 10.066406 -3.859375 10.015625 -4.707031 10.015625 -5.46875 L 10.015625 -13.078125 L 12.4375 -13.078125 L 12.4375 0 Z M 9.234375 0 "/></g></g></g><g fill="#45bf92" fill-opacity="1"><g transform="translate(185.278484, 184.576862)"><g><path d="M 7.171875 -10.953125 L 7.171875 0 L 4.4375 0 L 4.4375 -10.953125 L 0.21875 -10.953125 L 0.21875 -13.078125 L 11.40625 -13.078125 L 11.40625 -10.953125 Z M 7.171875 -10.953125 "/></g></g></g><g fill="#bde9d2" fill-opacity="1"><g transform="translate(196.88633, 184.576862)"><g><path d="M 10.515625 0 L 9.359375 -3.34375 L 4.375 -3.34375 L 3.203125 0 L 0.46875 0 L 5.234375 -13.078125 L 8.46875 -13.078125 L 13.21875 0 Z M 6.859375 -11.0625 L 6.796875 -10.859375 C 6.734375 -10.628906 6.660156 -10.375 6.578125 -10.09375 C 6.492188 -9.8125 5.960938 -8.25 4.984375 -5.40625 L 8.734375 -5.40625 L 7.453125 -9.15625 L 7.046875 -10.421875 Z M 6.859375 -11.0625 "/></g></g></g><g fill="#bde9d2" fill-opacity="1"><g transform="translate(210.604705, 184.576862)"><g><path d="M 1.265625 0 L 1.265625 -13.078125 L 4.015625 -13.078125 L 4.015625 -2.109375 L 11.015625 -2.109375 L 11.015625 0 Z M 1.265625 0 "/></g></g></g><g fill="#bde9d2" fill-opacity="1"><g transform="translate(222.208281, 184.576862)"><g><path d="M 1.265625 0 L 1.265625 -13.078125 L 4.015625 -13.078125 L 4.015625 -2.109375 L 11.015625 -2.109375 L 11.015625 0 Z M 1.265625 0 "/></g></g></g></svg>