<svg xmlns="http://www.w3.org/2000/svg" xmlns:xlink="http://www.w3.org/1999/xlink" width="500" zoomAndPan="magnify" viewBox="0 0 375 374.999991" height="500" preserveAspectRatio="xMidYMid meet" version="1.0"><defs><clipPath id="dcacef435f"><path d="M 120.6875 100.027344 L 257.9375 100.027344 L 257.9375 169.027344 L 120.6875 169.027344 Z M 120.6875 100.027344 " clip-rule="nonzero"/></clipPath></defs><g clip-path="url(#dcacef435f)"><path fill="#222222" d="M 236.722656 131.117188 L 258.273438 143.71875 L 258.273438 128.105469 L 237.539062 128.105469 L 189.496094 100.027344 L 141.453125 128.105469 L 120.71875 128.105469 L 120.71875 143.71875 L 140.503906 132.15625 L 140.503906 204.878906 L 143.515625 204.878906 L 143.515625 130.390625 L 189.496094 103.515625 L 231.566406 128.105469 L 161.5 128.105469 L 161.5 204.878906 L 179.640625 204.878906 L 179.640625 172.882812 L 199.359375 172.882812 L 199.359375 204.878906 L 238.769531 204.878906 L 238.769531 142.769531 L 235.753906 142.769531 L 235.753906 201.863281 L 202.367188 201.863281 L 202.367188 169.871094 L 176.625 169.871094 L 176.625 201.863281 L 164.507812 201.863281 L 164.507812 131.117188 Z M 255.261719 131.117188 L 255.261719 138.464844 L 242.691406 131.117188 Z M 123.730469 138.464844 L 123.730469 131.117188 L 136.300781 131.117188 Z M 123.730469 138.464844 " fill-opacity="1" fill-rule="nonzero"/></g></svg>