<svg xmlns="http://www.w3.org/2000/svg" xmlns:xlink="http://www.w3.org/1999/xlink" width="184" zoomAndPan="magnify" viewBox="0 0 138 98.249997" height="131" preserveAspectRatio="xMidYMid meet" version="1.0"><defs><g/><clipPath id="8ada84a8b9"><path d="M 0.523438 0 L 136.734375 0 L 136.734375 68.476562 L 0.523438 68.476562 Z M 0.523438 0 " clip-rule="nonzero"/></clipPath></defs><g clip-path="url(#8ada84a8b9)"><path fill="#45bf92" d="M 115.675781 30.855469 L 137.066406 43.359375 L 137.066406 27.867188 L 116.488281 27.867188 L 68.808594 0 L 21.132812 27.867188 L 0.554688 27.867188 L 0.554688 43.359375 L 20.1875 31.886719 L 20.1875 104.058594 L 23.175781 104.058594 L 23.175781 30.136719 L 68.808594 3.460938 L 110.558594 27.867188 L 41.023438 27.867188 L 41.023438 104.058594 L 59.027344 104.058594 L 59.027344 72.304688 L 78.597656 72.304688 L 78.597656 104.058594 L 117.707031 104.058594 L 117.707031 42.417969 L 114.71875 42.417969 L 114.71875 101.066406 L 81.582031 101.066406 L 81.582031 69.316406 L 56.035156 69.316406 L 56.035156 101.066406 L 44.011719 101.066406 L 44.011719 30.855469 Z M 134.078125 30.855469 L 134.078125 38.148438 L 121.601562 30.855469 Z M 3.542969 38.148438 L 3.542969 30.855469 L 16.019531 30.855469 Z M 3.542969 38.148438 " fill-opacity="1" fill-rule="nonzero"/></g><g fill="#45bf92" fill-opacity="1"><g transform="translate(24.820547, 83.910141)"><g><path d="M 10.171875 0 L 7.171875 -4.921875 L 3.984375 -4.921875 L 3.984375 0 L 1.265625 0 L 1.265625 -12.96875 L 7.75 -12.96875 C 9.289062 -12.96875 10.484375 -12.632812 11.328125 -11.96875 C 12.171875 -11.3125 12.59375 -10.359375 12.59375 -9.109375 C 12.59375 -8.203125 12.332031 -7.414062 11.8125 -6.75 C 11.300781 -6.09375 10.601562 -5.660156 9.71875 -5.453125 L 13.234375 0 Z M 9.859375 -9 C 9.859375 -10.238281 9.054688 -10.859375 7.453125 -10.859375 L 3.984375 -10.859375 L 3.984375 -7.03125 L 7.53125 -7.03125 C 8.289062 -7.03125 8.867188 -7.203125 9.265625 -7.546875 C 9.660156 -7.890625 9.859375 -8.375 9.859375 -9 Z M 9.859375 -9 "/></g></g></g><g fill="#45bf92" fill-opacity="1"><g transform="translate(38.434995, 83.910141)"><g><path d="M 1.265625 0 L 1.265625 -12.96875 L 11.46875 -12.96875 L 11.46875 -10.875 L 3.984375 -10.875 L 3.984375 -7.609375 L 10.90625 -7.609375 L 10.90625 -5.515625 L 3.984375 -5.515625 L 3.984375 -2.09375 L 11.84375 -2.09375 L 11.84375 0 Z M 1.265625 0 "/></g></g></g><g fill="#45bf92" fill-opacity="1"><g transform="translate(51.009253, 83.910141)"><g><path d="M 9.15625 0 L 3.515625 -9.984375 C 3.617188 -9.015625 3.671875 -8.238281 3.671875 -7.65625 L 3.671875 0 L 1.265625 0 L 1.265625 -12.96875 L 4.359375 -12.96875 L 10.109375 -2.90625 C 9.992188 -3.832031 9.9375 -4.675781 9.9375 -5.4375 L 9.9375 -12.96875 L 12.34375 -12.96875 L 12.34375 0 Z M 9.15625 0 "/></g></g></g><g fill="#45bf92" fill-opacity="1"><g transform="translate(64.623701, 83.910141)"><g><path d="M 7.125 -10.875 L 7.125 0 L 4.40625 0 L 4.40625 -10.875 L 0.21875 -10.875 L 0.21875 -12.96875 L 11.3125 -12.96875 L 11.3125 -10.875 Z M 7.125 -10.875 "/></g></g></g><g fill="#bde9d2" fill-opacity="1"><g transform="translate(76.143608, 83.910141)"><g><path d="M 10.4375 0 L 9.28125 -3.3125 L 4.34375 -3.3125 L 3.1875 0 L 0.46875 0 L 5.203125 -12.96875 L 8.40625 -12.96875 L 13.125 0 Z M 6.8125 -10.984375 L 6.75 -10.78125 C 6.6875 -10.550781 6.613281 -10.296875 6.53125 -10.015625 C 6.445312 -9.734375 5.914062 -8.179688 4.9375 -5.359375 L 8.671875 -5.359375 L 7.390625 -9.09375 L 7 -10.34375 Z M 6.8125 -10.984375 "/></g></g></g><g fill="#bde9d2" fill-opacity="1"><g transform="translate(89.758056, 83.910141)"><g><path d="M 1.265625 0 L 1.265625 -12.96875 L 3.984375 -12.96875 L 3.984375 -2.09375 L 10.9375 -2.09375 L 10.9375 0 Z M 1.265625 0 "/></g></g></g><g fill="#bde9d2" fill-opacity="1"><g transform="translate(101.273725, 83.910141)"><g><path d="M 1.265625 0 L 1.265625 -12.96875 L 3.984375 -12.96875 L 3.984375 -2.09375 L 10.9375 -2.09375 L 10.9375 0 Z M 1.265625 0 "/></g></g></g></svg>