<svg xmlns="http://www.w3.org/2000/svg" xmlns:xlink="http://www.w3.org/1999/xlink" width="500" zoomAndPan="magnify" viewBox="0 0 375 374.999991" height="500" preserveAspectRatio="xMidYMid meet" version="1.0"><defs><g/><clipPath id="13459f8bd9"><path d="M 120.6875 100.027344 L 257.9375 100.027344 L 257.9375 169.027344 L 120.6875 169.027344 Z M 120.6875 100.027344 " clip-rule="nonzero"/></clipPath></defs><g clip-path="url(#13459f8bd9)"><path fill="#222222" d="M 236.722656 131.117188 L 258.273438 143.71875 L 258.273438 128.105469 L 237.539062 128.105469 L 189.496094 100.027344 L 141.453125 128.105469 L 120.71875 128.105469 L 120.71875 143.71875 L 140.503906 132.15625 L 140.503906 204.878906 L 143.515625 204.878906 L 143.515625 130.390625 L 189.496094 103.515625 L 231.566406 128.105469 L 161.5 128.105469 L 161.5 204.878906 L 179.640625 204.878906 L 179.640625 172.882812 L 199.359375 172.882812 L 199.359375 204.878906 L 238.769531 204.878906 L 238.769531 142.769531 L 235.753906 142.769531 L 235.753906 201.863281 L 202.367188 201.863281 L 202.367188 169.871094 L 176.625 169.871094 L 176.625 201.863281 L 164.507812 201.863281 L 164.507812 131.117188 Z M 255.261719 131.117188 L 255.261719 138.464844 L 242.691406 131.117188 Z M 123.730469 138.464844 L 123.730469 131.117188 L 136.300781 131.117188 Z M 123.730469 138.464844 " fill-opacity="1" fill-rule="nonzero"/></g><g fill="#222222" fill-opacity="1"><g transform="translate(145.171489, 184.576862)"><g><path d="M 10.25 0 L 7.21875 -4.96875 L 4.015625 -4.96875 L 4.015625 0 L 1.265625 0 L 1.265625 -13.078125 L 7.796875 -13.078125 C 9.359375 -13.078125 10.5625 -12.738281 11.40625 -12.0625 C 12.257812 -11.394531 12.6875 -10.429688 12.6875 -9.171875 C 12.6875 -8.253906 12.425781 -7.460938 11.90625 -6.796875 C 11.382812 -6.140625 10.679688 -5.707031 9.796875 -5.5 L 13.328125 0 Z M 9.921875 -9.0625 C 9.921875 -10.320312 9.117188 -10.953125 7.515625 -10.953125 L 4.015625 -10.953125 L 4.015625 -7.09375 L 7.59375 -7.09375 C 8.351562 -7.09375 8.929688 -7.265625 9.328125 -7.609375 C 9.722656 -7.953125 9.921875 -8.4375 9.921875 -9.0625 Z M 9.921875 -9.0625 "/></g></g></g><g fill="#222222" fill-opacity="1"><g transform="translate(158.889864, 184.576862)"><g><path d="M 1.265625 0 L 1.265625 -13.078125 L 11.546875 -13.078125 L 11.546875 -10.953125 L 4.015625 -10.953125 L 4.015625 -7.671875 L 10.984375 -7.671875 L 10.984375 -5.5625 L 4.015625 -5.5625 L 4.015625 -2.109375 L 11.9375 -2.109375 L 11.9375 0 Z M 1.265625 0 "/></g></g></g><g fill="#222222" fill-opacity="1"><g transform="translate(171.560109, 184.576862)"><g><path d="M 9.234375 0 L 3.53125 -10.0625 C 3.644531 -9.082031 3.703125 -8.296875 3.703125 -7.703125 L 3.703125 0 L 1.265625 0 L 1.265625 -13.078125 L 4.390625 -13.078125 L 10.171875 -2.921875 C 10.066406 -3.859375 10.015625 -4.707031 10.015625 -5.46875 L 10.015625 -13.078125 L 12.4375 -13.078125 L 12.4375 0 Z M 9.234375 0 "/></g></g></g><g fill="#222222" fill-opacity="1"><g transform="translate(185.278484, 184.576862)"><g><path d="M 7.171875 -10.953125 L 7.171875 0 L 4.4375 0 L 4.4375 -10.953125 L 0.21875 -10.953125 L 0.21875 -13.078125 L 11.40625 -13.078125 L 11.40625 -10.953125 Z M 7.171875 -10.953125 "/></g></g></g><g fill="#222222" fill-opacity="1"><g transform="translate(196.88206, 184.576862)"><g><path d="M 10.515625 0 L 9.359375 -3.34375 L 4.375 -3.34375 L 3.203125 0 L 0.46875 0 L 5.234375 -13.078125 L 8.46875 -13.078125 L 13.21875 0 Z M 6.859375 -11.0625 L 6.796875 -10.859375 C 6.734375 -10.628906 6.660156 -10.375 6.578125 -10.09375 C 6.492188 -9.8125 5.960938 -8.25 4.984375 -5.40625 L 8.734375 -5.40625 L 7.453125 -9.15625 L 7.046875 -10.421875 Z M 6.859375 -11.0625 "/></g></g></g><g fill="#222222" fill-opacity="1"><g transform="translate(210.600435, 184.576862)"><g><path d="M 1.265625 0 L 1.265625 -13.078125 L 4.015625 -13.078125 L 4.015625 -2.109375 L 11.015625 -2.109375 L 11.015625 0 Z M 1.265625 0 "/></g></g></g><g fill="#222222" fill-opacity="1"><g transform="translate(222.204011, 184.576862)"><g><path d="M 1.265625 0 L 1.265625 -13.078125 L 4.015625 -13.078125 L 4.015625 -2.109375 L 11.015625 -2.109375 L 11.015625 0 Z M 1.265625 0 "/></g></g></g></svg>