<svg xmlns="http://www.w3.org/2000/svg" xmlns:xlink="http://www.w3.org/1999/xlink" width="291" zoomAndPan="magnify" viewBox="0 0 218.25 123.749996" height="165" preserveAspectRatio="xMidYMid meet" version="1.0"><defs><g/><clipPath id="6c4d5f0f14"><path d="M 40.171875 0.0859375 L 176.949219 0.0859375 L 176.949219 68.851562 L 40.171875 68.851562 Z M 40.171875 0.0859375 " clip-rule="nonzero"/></clipPath></defs><g clip-path="url(#6c4d5f0f14)"><path fill="#45bf92" d="M 155.804688 31.074219 L 177.285156 43.628906 L 177.285156 28.070312 L 156.621094 28.070312 L 108.742188 0.0859375 L 60.863281 28.070312 L 40.199219 28.070312 L 40.199219 43.628906 L 59.914062 32.105469 L 59.914062 104.578125 L 62.917969 104.578125 L 62.917969 30.347656 L 108.742188 3.5625 L 150.667969 28.070312 L 80.839844 28.070312 L 80.839844 104.578125 L 98.921875 104.578125 L 98.921875 72.695312 L 118.570312 72.695312 L 118.570312 104.578125 L 157.84375 104.578125 L 157.84375 42.683594 L 154.84375 42.683594 L 154.84375 101.578125 L 121.570312 101.578125 L 121.570312 69.695312 L 95.914062 69.695312 L 95.914062 101.578125 L 83.839844 101.578125 L 83.839844 31.074219 Z M 174.28125 31.074219 L 174.28125 38.394531 L 161.753906 31.074219 Z M 43.203125 38.394531 L 43.203125 31.074219 L 55.730469 31.074219 Z M 43.203125 38.394531 " fill-opacity="1" fill-rule="nonzero"/></g><g fill="#45bf92" fill-opacity="1"><g transform="translate(13.430409, 100.458386)"><g><path d="M 22.046875 0 L 15.515625 -10.671875 L 8.625 -10.671875 L 8.625 0 L 2.734375 0 L 2.734375 -28.109375 L 16.78125 -28.109375 C 20.132812 -28.109375 22.71875 -27.382812 24.53125 -25.9375 C 26.351562 -24.5 27.265625 -22.429688 27.265625 -19.734375 C 27.265625 -17.765625 26.707031 -16.0625 25.59375 -14.625 C 24.476562 -13.195312 22.96875 -12.257812 21.0625 -11.8125 L 28.671875 0 Z M 21.34375 -19.484375 C 21.34375 -22.191406 19.613281 -23.546875 16.15625 -23.546875 L 8.625 -23.546875 L 8.625 -15.25 L 16.3125 -15.25 C 17.96875 -15.25 19.21875 -15.617188 20.0625 -16.359375 C 20.914062 -17.109375 21.34375 -18.148438 21.34375 -19.484375 Z M 21.34375 -19.484375 "/></g></g></g><g fill="#45bf92" fill-opacity="1"><g transform="translate(42.932272, 100.458386)"><g><path d="M 2.734375 0 L 2.734375 -28.109375 L 24.84375 -28.109375 L 24.84375 -23.5625 L 8.625 -23.5625 L 8.625 -16.5 L 23.625 -16.5 L 23.625 -11.953125 L 8.625 -11.953125 L 8.625 -4.546875 L 25.65625 -4.546875 L 25.65625 0 Z M 2.734375 0 "/></g></g></g><g fill="#45bf92" fill-opacity="1"><g transform="translate(70.180105, 100.458386)"><g><path d="M 19.84375 0 L 7.59375 -21.640625 C 7.832031 -19.546875 7.953125 -17.859375 7.953125 -16.578125 L 7.953125 0 L 2.734375 0 L 2.734375 -28.109375 L 9.453125 -28.109375 L 21.890625 -6.28125 C 21.648438 -8.289062 21.53125 -10.117188 21.53125 -11.765625 L 21.53125 -28.109375 L 26.75 -28.109375 L 26.75 0 Z M 19.84375 0 "/></g></g></g><g fill="#45bf92" fill-opacity="1"><g transform="translate(99.681967, 100.458386)"><g><path d="M 15.421875 -23.5625 L 15.421875 0 L 9.53125 0 L 9.53125 -23.5625 L 0.453125 -23.5625 L 0.453125 -28.109375 L 24.515625 -28.109375 L 24.515625 -23.5625 Z M 15.421875 -23.5625 "/></g></g></g><g fill="#bde9d2" fill-opacity="1"><g transform="translate(124.645877, 100.458386)"><g><path d="M 22.609375 0 L 20.109375 -7.1875 L 9.390625 -7.1875 L 6.90625 0 L 1.015625 0 L 11.265625 -28.109375 L 18.21875 -28.109375 L 28.4375 0 Z M 14.75 -23.78125 L 14.625 -23.34375 C 14.488281 -22.863281 14.328125 -22.316406 14.140625 -21.703125 C 13.953125 -21.085938 12.8125 -17.722656 10.71875 -11.609375 L 18.796875 -11.609375 L 16.015625 -19.6875 L 15.15625 -22.40625 Z M 14.75 -23.78125 "/></g></g></g><g fill="#bde9d2" fill-opacity="1"><g transform="translate(154.14774, 100.458386)"><g><path d="M 2.734375 0 L 2.734375 -28.109375 L 8.625 -28.109375 L 8.625 -4.546875 L 23.703125 -4.546875 L 23.703125 0 Z M 2.734375 0 "/></g></g></g><g fill="#bde9d2" fill-opacity="1"><g transform="translate(179.101648, 100.458386)"><g><path d="M 2.734375 0 L 2.734375 -28.109375 L 8.625 -28.109375 L 8.625 -4.546875 L 23.703125 -4.546875 L 23.703125 0 Z M 2.734375 0 "/></g></g></g></svg>